<?xml version="1.0"?>
<svg xmlns="http://www.w3.org/2000/svg" id="Capa_1" enable-background="new 0 0 512 512" height="512px" viewBox="0 0 512 512" width="512px" class=""><g><g><path d="m176 140h45v115c0 8.284 6.716 15 15 15h200c8.284 0 15-6.716 15-15v-180c0-8.284-6.716-15-15-15h-200c-3.509 0-6.907 1.23-9.603 3.477l-60 50c-4.851 4.043-6.651 10.691-4.501 16.63s7.789 9.893 14.104 9.893zm65.431-50h179.569v150h-170v-115c0-8.284-6.716-15-15-15h-18.569z" data-original="#000000" class="active-path" data-old_color="#000000" fill="#FFFFFF"/><path d="m296 150h80c8.284 0 15-6.716 15-15s-6.716-15-15-15h-80c-8.284 0-15 6.716-15 15s6.716 15 15 15z" data-original="#000000" class="active-path" data-old_color="#000000" fill="#FFFFFF"/><path d="m296 210h80c8.284 0 15-6.716 15-15s-6.716-15-15-15h-80c-8.284 0-15 6.716-15 15s6.716 15 15 15z" data-original="#000000" class="active-path" data-old_color="#000000" fill="#FFFFFF"/><path d="m467 0h-422c-24.813 0-45 20.187-45 45v322c0 24.813 20.187 45 45 45h135.099c-2.81 23.533-12.164 46.07-27.047 64.673l-4.262 5.327h-32.79c-8.284 0-15 6.716-15 15s6.716 15 15 15h280c8.284 0 15-6.716 15-15s-6.716-15-15-15h-32.791l-4.262-5.327c-14.882-18.603-24.237-41.14-27.047-64.673h135.1c24.813 0 45-20.187 45-45v-322c0-24.813-20.187-45-45-45zm-422 30h422c8.271 0 15 6.729 15 15v265h-271v-5c0-26.383-13.705-49.61-34.358-62.983 8.915-9.779 14.358-22.774 14.358-37.017 0-30.327-24.673-55-55-55s-55 24.673-55 55c0 14.243 5.443 27.238 14.358 37.017-20.653 13.373-34.358 36.6-34.358 62.983v5h-31v-265c0-8.271 6.729-15 15-15zm66 175c0-13.785 11.215-25 25-25s25 11.215 25 25-11.215 25-25 25-25-11.215-25-25zm25 55c24.813 0 45 20.187 45 45v5h-90v-5c0-24.813 20.187-45 45-45zm189.909 222h-139.818c13.459-21.043 21.785-45.128 24.186-70h91.447c2.401 24.872 10.726 48.957 24.185 70zm141.091-100h-422c-8.271 0-15-6.729-15-15v-27h452v27c0 8.271-6.729 15-15 15z" data-original="#000000" class="active-path" data-old_color="#000000" fill="#FFFFFF"/></g></g> </svg>
