<svg xmlns="http://www.w3.org/2000/svg" width="50" height="50" viewBox="0 0 50 50">
    <g fill="#FFF" fill-rule="nonzero">
        <path d="M16.885 15.256h8.36c.542 0 .985-.461.985-1.025 0-.564-.443-1.026-.984-1.026h-8.36c-.542 0-.984.462-.984 1.026 0 .564.442 1.025.983 1.025zM16.885 21.923h15.738c.54 0 .984-.461.984-1.026 0-.564-.443-1.025-.984-1.025H16.885c-.54 0-.983.461-.983 1.025 0 .565.442 1.026.983 1.026zM16.885 28.59h15.738c.54 0 .984-.462.984-1.026 0-.564-.443-1.026-.984-1.026H16.885c-.54 0-.983.462-.983 1.026 0 .564.442 1.026.983 1.026zM16.885 35.256h15.738c.54 0 .984-.461.984-1.025 0-.564-.443-1.026-.984-1.026H16.885c-.54 0-.983.462-.983 1.026 0 .564.442 1.025.983 1.025z"/>
        <path d="M10.05 40.949c0 2.205 1.72 4.051 3.884 4.051h21.738c2.115 0 3.885-1.795 3.885-4.051l.05-25.436c0-.975-.345-1.949-.984-2.667l-5.557-6.461a3.58 3.58 0 0 0-1.082-.872c-.197-.308-.492-.513-.836-.513-.099 0-.246 0-.345.051-.196 0-.393-.051-.64-.051H13.886C11.77 5 10 6.795 10 9.051V40.95h.05zM32.18 8.385l4.033 4.82H34.05c-1.033 0-1.918-.872-1.918-2v-2.82h.05zm-20.164.666c0-1.077.836-2 1.918-2h16.23v4.154c0 2.205 1.721 4.051 3.885 4.051h3.492c0 .103.05.206.05.308l-.05 25.385c0 1.077-.836 2-1.918 2H13.885c-1.033 0-1.918-.872-1.918-2V9.05h.05z"/>
    </g>
</svg>
