<svg width="40" height="39" viewBox="0 0 40 39" fill="none" xmlns="http://www.w3.org/2000/svg">
<g clip-path="url(#clip0_362_8234)">
<path d="M33.7244 2.4375H31.2941V0H28.8637V2.4375H26.4333V4.875H28.8637V7.3125H31.2941V4.875H33.7244V2.4375Z" fill="#36D6D9"/>
<path d="M22.7846 13.4062H15.4935V15.8438H22.7846V13.4062Z" fill="#000032"/>
<path d="M25.2183 9.75H13.0665V12.1875H25.2183V9.75Z" fill="#000032"/>
<path d="M27.6467 6.09375H10.6343V8.53125H27.6467V6.09375Z" fill="#000032"/>
<path d="M15.4964 28.0312H22.7874V25.5938H15.4964V28.0312Z" fill="#000032"/>
<path d="M13.0655 31.6875H25.2172V29.25H13.0655V31.6875Z" fill="#000032"/>
<path d="M10.637 35.3438H27.6495V32.9062H10.637V35.3438Z" fill="#000032"/>
<path d="M21.645 20.727C21.6402 20.7238 21.6353 20.7205 21.6297 20.7181C21.0691 20.3825 20.476 20.0478 19.8498 19.7146L19.5622 19.5627C14.3605 16.7986 11.8767 13.9248 10.7093 12C9.49734 10.0028 9.41957 8.87264 9.42038 8.52002C9.28752 13.148 11.8896 17.0139 16.6531 20.7181C17.2113 21.052 17.8018 21.386 18.4273 21.7175L18.7149 21.8694C23.9199 24.6335 26.4053 27.509 27.5735 29.4338C28.7862 31.4317 28.8681 32.6586 28.8672 32.9153V32.9145C29.0001 28.2906 26.3996 24.428 21.645 20.727Z" fill="url(#paint0_linear_362_8234)"/>
<path d="M28.8697 8.52148C28.8697 8.52798 28.8697 8.53448 28.8697 8.54098C28.9944 13.1609 26.3907 17.0202 21.6345 20.7187C21.6345 20.7187 21.6799 20.7082 22.477 20.2012C31.1907 14.6575 31.3 9.12355 31.3 8.53286L28.8697 8.52148Z" fill="#000032"/>
<path d="M28.8672 8.54033L28.8632 8.5322V8.51758C28.8632 8.53139 28.8146 9.95652 27.5735 12.0008C25.4583 15.4872 21.5916 18.0376 18.723 19.5619L18.4313 19.7163C17.8043 20.0494 17.2121 20.3841 16.6523 20.7189C11.8896 24.4231 9.28752 28.2873 9.42038 32.9153V32.917C9.422 32.6854 9.49734 31.4341 10.7101 29.4354C12.8269 25.9473 16.6952 23.3969 19.5663 21.8718L19.8587 21.7175C20.4825 21.386 21.0723 21.0528 21.6297 20.7197C21.6305 20.7197 21.6313 20.7181 21.6329 20.7181C26.3891 17.0196 28.9928 13.1594 28.8681 8.54033H28.8672Z" fill="url(#paint1_linear_362_8234)"/>
<path d="M16.6511 20.7196C16.6511 20.7196 16.6082 20.7293 15.811 21.2363C7.0982 26.78 6.98883 32.3139 6.98883 32.9046V38.9992H9.41918V32.9168V32.9152C9.28632 28.2872 11.8884 24.4229 16.6511 20.7188V20.7196Z" fill="#000032"/>
<path d="M9.41918 8.5215V2.4375H6.98883V8.53206C6.98883 9.12356 7.0982 14.6567 15.8118 20.2004C16.5831 20.6911 16.6487 20.7171 16.6519 20.7188C11.8884 17.0154 9.28632 13.1495 9.41918 8.5215Z" fill="#000032"/>
<path d="M22.477 21.2363C21.6799 20.7293 21.6345 20.7188 21.6345 20.7188C21.6386 20.722 21.6426 20.7252 21.6475 20.7285C26.4021 24.4294 29.0025 28.2921 28.8697 32.916V39H31.3V32.9054C31.3 32.3139 31.1907 26.7808 22.477 21.2371V21.2363Z" fill="#000032"/>
</g>
<defs>
<linearGradient id="paint0_linear_362_8234" x1="10.3617" y1="15.7204" x2="27.9883" y2="25.6916" gradientUnits="userSpaceOnUse">
<stop stop-color="#36D6D9"/>
<stop offset="0.05" stop-color="#29A2B1"/>
<stop offset="0.12" stop-color="#1A6984"/>
<stop offset="0.18" stop-color="#0F3B60"/>
<stop offset="0.23" stop-color="#061B47"/>
<stop offset="0.28" stop-color="#010737"/>
<stop offset="0.31" stop-color="#000032"/>
<stop offset="0.5" stop-color="#000032"/>
<stop offset="0.7" stop-color="#000032"/>
<stop offset="0.74" stop-color="#010435"/>
<stop offset="0.78" stop-color="#041341"/>
<stop offset="0.82" stop-color="#0A2B53"/>
<stop offset="0.87" stop-color="#134C6D"/>
<stop offset="0.92" stop-color="#1E778F"/>
<stop offset="0.96" stop-color="#2BAAB7"/>
<stop offset="1" stop-color="#36D6D9"/>
</linearGradient>
<linearGradient id="paint1_linear_362_8234" x1="10.1179" y1="26.0863" x2="29.3007" y2="14.7404" gradientUnits="userSpaceOnUse">
<stop stop-color="#36D6D9"/>
<stop offset="0.05" stop-color="#29A2B1"/>
<stop offset="0.12" stop-color="#1A6984"/>
<stop offset="0.18" stop-color="#0F3B60"/>
<stop offset="0.23" stop-color="#061B47"/>
<stop offset="0.27" stop-color="#010737"/>
<stop offset="0.3" stop-color="#000032"/>
<stop offset="0.5" stop-color="#000032"/>
<stop offset="0.7" stop-color="#000032"/>
<stop offset="0.73" stop-color="#010435"/>
<stop offset="0.78" stop-color="#041341"/>
<stop offset="0.82" stop-color="#0A2B53"/>
<stop offset="0.87" stop-color="#134C6D"/>
<stop offset="0.91" stop-color="#1E778F"/>
<stop offset="0.96" stop-color="#2BAAB7"/>
<stop offset="1" stop-color="#36D6D9"/>
</linearGradient>
<clipPath id="clip0_362_8234">
<rect width="26.7339" height="39" fill="white" transform="translate(6.98853)"/>
</clipPath>
</defs>
</svg>
