<svg width="109" height="14" viewBox="0 0 109 14" fill="none" xmlns="http://www.w3.org/2000/svg">
<g clip-path="url(#clip0_863_8464)">
<path d="M8.26639 0.45459V5.81949H2.81733V0.45459H0V13.9659H2.81733V8.3105H8.26639V13.9659H11.0837V0.45459H8.26639Z" fill="white"/>
<path d="M29.0649 11.4541V0.45459H26.2446V11.4943C26.2446 13.0973 27.0929 13.9659 28.6502 13.9659H35.0577V11.4541H29.0649Z" fill="white"/>
<path d="M12.8522 7.0664C12.8522 2.51942 15.7116 0.168457 18.9726 0.168457C22.0422 0.168457 24.2911 2.09482 24.6232 5.00447H21.8856C21.7116 3.59806 20.5081 2.65351 18.9726 2.65351C17.002 2.65351 15.4854 4.17612 15.4854 7.06491C15.4854 9.95371 17.002 11.457 18.9726 11.457C20.5415 11.457 21.745 10.5124 21.9552 9.12536H24.571C24.3448 12.0156 22.0944 13.9614 18.9726 13.9614C15.6594 13.9614 12.8522 11.6104 12.8522 7.06342V7.0664Z" fill="white"/>
<path d="M36.0602 9.18344H39.253C39.3284 10.3217 40.0795 11.0562 41.2062 11.0562C42.2023 11.0562 42.8403 10.5735 42.8403 9.82109C42.8403 7.54313 36.3965 9.60804 36.3965 4.10756C36.3965 1.81023 38.3134 0.169922 40.9988 0.169922C43.9292 0.169922 45.865 1.8877 45.9012 4.53217H42.7446C42.6692 3.66359 42.0312 3.10341 40.9974 3.10341C40.1709 3.10341 39.6257 3.50865 39.6257 4.10756C39.6257 6.63582 46.1825 4.30124 46.1825 9.76298C46.1825 12.33 44.2294 13.9897 41.2047 13.9897C38.18 13.9897 36.1515 12.0976 36.0573 9.18344H36.0602Z" fill="white"/>
<path d="M73.2858 13.9672H75.9349L77.4371 8.6202L78.903 13.9672H81.5521L84.7088 4.23859H81.6087L80.2181 9.50814L78.8088 4.23859H76.0291L74.6386 9.50814L73.2292 4.23859H73.2307H67.9295V0H64.8294V4.24008H61.2929V2.6087H63.8855V0H60.4853C59.1324 0 58.1928 0.949026 58.1928 2.33904V4.24008H56.0497V6.01298C55.1594 4.74215 53.6776 3.96148 51.881 3.96148C48.9317 3.96148 46.809 6.10386 46.809 8.98074C46.809 11.8576 48.9317 14 51.881 14C54.8303 14 56.9531 11.8576 56.9531 8.98074C56.9531 8.22092 56.8052 7.51176 56.5326 6.88007L58.1928 6.88305V13.9687H61.2929V6.86517H64.8294V11.6133C64.8294 13.1195 65.6559 13.9687 67.1219 13.9687H70.3162V11.3436H67.9309V6.86517H70.2654V4.60956L73.2872 13.9672H73.2858ZM51.8825 11.2945C50.6993 11.2945 49.9105 10.3678 49.9105 8.97776C49.9105 7.58774 50.6993 6.66106 51.8825 6.66106C53.0657 6.66106 53.8545 7.58774 53.8545 8.97776C53.8545 10.3678 53.0657 11.2945 51.8825 11.2945Z" fill="white"/>
<path d="M84.551 11.0858C84.551 9.17434 85.9039 8.01674 87.8947 8.01674H89.2475C89.7362 8.01674 89.9986 7.66961 89.9986 7.20627C89.9986 6.62672 89.5288 6.22148 88.6835 6.22148C87.6496 6.22148 87.2741 6.8785 87.2552 7.57277H84.5496C84.625 5.6032 86.0706 3.96289 88.8705 3.96289C91.2369 3.96289 93.0784 5.39164 93.0784 7.59213V13.9642H89.9972V12.6486C89.7536 13.4591 88.7951 13.9999 87.5742 13.9999C85.8082 13.9999 84.5496 12.7067 84.5496 11.0858H84.551ZM88.4399 11.7801C89.436 11.7801 89.9986 10.9309 89.9986 10.0235V9.94608H88.421C87.8758 9.94608 87.4814 10.3513 87.4814 10.9309C87.4814 11.4329 87.8947 11.7801 88.4399 11.7801V11.7801Z" fill="white"/>
<path d="M99.8613 6.88002C99.5988 7.56087 99.477 8.29089 99.477 8.9792C99.477 11.2765 101.017 13.9985 104.417 13.9985C106.747 13.9985 108.606 12.6278 109.001 10.4661H106.014C105.844 11.1231 105.262 11.4315 104.417 11.4315C103.29 11.4315 102.632 10.8132 102.445 9.73306H108.964C108.983 9.50213 109.002 9.23098 109.002 8.78701C109.002 6.74146 107.819 3.96143 104.23 3.96143C102.473 3.96143 101.262 4.68847 100.502 5.70752V5.61663V4.24003H96.3334C94.9806 4.24003 94.041 5.20544 94.041 6.59546V13.9687H97.1411V6.87853H99.8613V6.88002ZM104.229 6.22002C105.299 6.22002 105.882 7.01112 105.938 7.84096H102.444C102.651 6.66399 103.232 6.22002 104.229 6.22002V6.22002Z" fill="white"/>
</g>
<defs>
<clipPath id="clip0_863_8464">
<rect width="109" height="14" fill="white"/>
</clipPath>
</defs>
</svg>
