<svg width="80" height="80" viewBox="0 0 80 80" fill="none" xmlns="http://www.w3.org/2000/svg">
<g clip-path="url(#clip0_28195_7267)">
<path d="M74.6339 0H4.91728C2.36946 0 0.289612 2.1072 0.289612 4.68853V60.9509C0.289612 63.5322 2.36946 65.6394 4.91728 65.6394H32.1737C33.0369 68.7897 34.7008 71.7714 37.1446 74.2473C40.9299 78.0825 45.9112 80 50.882 80C55.8528 80 60.8341 78.0825 64.6194 74.2473C67.0424 71.7924 68.7167 68.8213 69.6007 65.6394H74.6235C77.1713 65.6394 79.2512 63.5322 79.2512 60.9509V4.68853C79.2616 2.1072 77.1817 0 74.6339 0ZM4.91728 3.1292H74.6339C75.4866 3.1292 76.173 3.83511 76.173 4.68853V12.5063H3.37819V4.68853C3.37819 3.82458 4.06454 3.1292 4.91728 3.1292ZM3.37819 60.9403V15.6249H22.5024V62.5102H4.91728C4.06454 62.5102 3.37819 61.8043 3.37819 60.9403ZM74.6339 62.5102H70.2038C70.5574 59.2651 70.1206 55.9041 68.8207 52.7433C68.4879 51.9426 67.5936 51.5738 66.8033 51.9004C66.0129 52.2376 65.6489 53.1437 65.9713 53.9444C68.5295 60.1712 67.1464 67.2725 62.4356 72.0348C56.0608 78.4934 45.6928 78.4934 39.318 72.0348C32.9433 65.5762 32.9433 55.0718 39.318 48.6132C44.0185 43.8509 51.0276 42.4391 57.1736 45.0309C57.9639 45.3681 58.8582 44.9888 59.191 44.1881C59.5134 43.3873 59.1494 42.4812 58.3591 42.1441C51.0588 39.0676 42.729 40.7323 37.1342 46.4006C32.7977 50.7942 30.9466 56.7681 31.5706 62.5102H25.5806V15.6249H76.173V60.9403C76.173 61.8043 75.4866 62.5102 74.6339 62.5102Z" fill="#14142C"/>
<path d="M36.0735 9.37708H69.3927C70.2455 9.37708 70.9318 8.68171 70.9318 7.81775C70.9318 6.9538 70.2455 6.25842 69.3927 6.25842H36.0735C35.2208 6.25842 34.5344 6.9538 34.5344 7.81775C34.5344 8.68171 35.2208 9.37708 36.0735 9.37708Z" fill="#36D6D9"/>
<path d="M16.9492 9.37708C17.3548 9.37708 17.75 9.20851 18.0412 8.92404C18.3323 8.62903 18.4883 8.22866 18.4883 7.81775C18.4883 7.40685 18.3219 7.00648 18.0412 6.71147C17.75 6.41646 17.3548 6.25842 16.9492 6.25842C16.5437 6.25842 16.1485 6.427 15.8573 6.71147C15.5661 6.99594 15.4102 7.40685 15.4102 7.81775C15.4102 8.22866 15.5765 8.62903 15.8573 8.92404C16.1485 9.20851 16.5437 9.37708 16.9492 9.37708Z" fill="#36D6D9"/>
<path d="M10.1585 9.37708C10.5641 9.37708 10.9593 9.20851 11.2505 8.92404C11.5416 8.62903 11.6976 8.22866 11.6976 7.81775C11.6976 7.40685 11.5312 7.00648 11.2505 6.71147C10.9593 6.41646 10.5641 6.25842 10.1585 6.25842C9.75296 6.25842 9.35779 6.427 9.06661 6.71147C8.77543 7.00648 8.61945 7.40685 8.61945 7.81775C8.61945 8.22866 8.78583 8.62903 9.06661 8.92404C9.35779 9.20851 9.75296 9.37708 10.1585 9.37708Z" fill="#36D6D9"/>
<path d="M23.7295 9.37708C24.1351 9.37708 24.5303 9.20851 24.8214 8.92404C25.1126 8.62903 25.2686 8.22866 25.2686 7.81775C25.2686 7.40685 25.1022 7.00648 24.8214 6.71147C24.5303 6.41646 24.1351 6.25842 23.7295 6.25842C23.3239 6.25842 22.9288 6.427 22.6376 6.71147C22.3464 6.99594 22.1904 7.40685 22.1904 7.81775C22.1904 8.22866 22.3568 8.62903 22.6376 8.92404C22.9288 9.20851 23.3239 9.37708 23.7295 9.37708Z" fill="#36D6D9"/>
<path d="M8.61941 26.5719H17.2612C18.1139 26.5719 18.8003 25.8765 18.8003 25.0126C18.8003 24.1486 18.1139 23.4532 17.2612 23.4532H8.61941C7.76667 23.4532 7.08032 24.1486 7.08032 25.0126C7.08032 25.866 7.76667 26.5719 8.61941 26.5719Z" fill="#36D6D9"/>
<path d="M17.2612 30.9443H8.61941C7.76667 30.9443 7.08032 31.6397 7.08032 32.5037C7.08032 33.3676 7.76667 34.063 8.61941 34.063H17.2612C18.1139 34.063 18.8003 33.3676 18.8003 32.5037C18.8003 31.6397 18.1035 30.9443 17.2612 30.9443Z" fill="#36D6D9"/>
<path d="M17.2612 38.4459H8.61941C7.76667 38.4459 7.08032 39.1413 7.08032 40.0053C7.08032 40.8692 7.76667 41.5646 8.61941 41.5646H17.2612C18.1139 41.5646 18.8003 40.8692 18.8003 40.0053C18.8003 39.1413 18.1035 38.4459 17.2612 38.4459Z" fill="#36D6D9"/>
<path d="M17.2612 45.9476H8.61941C7.76667 45.9476 7.08032 46.643 7.08032 47.507C7.08032 48.3709 7.76667 49.0663 8.61941 49.0663H17.2612C18.1139 49.0663 18.8003 48.3709 18.8003 47.507C18.8003 46.643 18.1035 45.9476 17.2612 45.9476Z" fill="#36D6D9"/>
<path d="M17.2612 53.4492H8.61941C7.76667 53.4492 7.08032 54.1446 7.08032 55.0085C7.08032 55.8725 7.76667 56.5679 8.61941 56.5679H17.2612C18.1139 56.5679 18.8003 55.8725 18.8003 55.0085C18.8003 54.1446 18.1035 53.4492 17.2612 53.4492Z" fill="#36D6D9"/>
<path d="M53.513 57.0526L49.7381 60.8771L48.3966 59.518C47.7934 58.9069 46.8159 58.9069 46.2127 59.518C45.6096 60.1291 45.6096 61.1195 46.2127 61.7305L48.6462 64.196C48.9373 64.491 49.3325 64.649 49.7381 64.649C50.1437 64.649 50.5388 64.4804 50.83 64.196L55.6969 59.2651C56.3 58.654 56.3 57.6636 55.6969 57.0526C55.0937 56.4415 54.1162 56.4415 53.513 57.0526Z" fill="#36D6D9"/>
<path d="M50.8821 46.8853C43.5714 46.8853 37.6126 52.9119 37.6126 60.3292C37.6126 67.7466 43.561 73.7732 50.8821 73.7732C58.2031 73.7732 64.1411 67.7255 64.1411 60.3187C64.1411 52.9119 58.1927 46.8853 50.8821 46.8853ZM50.8821 70.6334C45.2665 70.6334 40.7012 66.0081 40.7012 60.3187C40.7012 54.6292 45.2665 50.0039 50.8821 50.0039C56.4977 50.0039 61.0629 54.6292 61.0629 60.3187C61.0629 66.0081 56.4977 70.6334 50.8821 70.6334Z" fill="#14142C"/>
<path d="M63.5276 45.937C63.122 45.937 62.7268 46.1056 62.4356 46.3901C62.1445 46.6851 61.9885 47.0854 61.9885 47.4963C61.9885 47.9072 62.1549 48.3076 62.4356 48.6026C62.7268 48.8976 63.122 49.0557 63.5276 49.0557C63.9331 49.0557 64.3283 48.8871 64.6195 48.6026C64.9107 48.3076 65.0666 47.9072 65.0666 47.4963C65.0666 47.0854 64.9003 46.6851 64.6195 46.3901C64.3387 46.1056 63.9435 45.937 63.5276 45.937Z" fill="#36D6D9"/>
<path d="M49.407 36.6186C49.2822 36.6186 49.1574 36.6081 49.0326 36.5765C48.1695 36.3658 47.6391 35.4913 47.8471 34.6168L51.0397 21.0885C51.2476 20.214 52.1108 19.6767 52.9739 19.8874C53.8371 20.0981 54.3674 20.9726 54.1594 21.8471L50.9669 35.3648C50.7901 36.1129 50.1349 36.6186 49.407 36.6186Z" fill="#36D6D9"/>
<path d="M59.9405 35.3983C59.5557 35.3983 59.1813 35.2613 58.8694 34.9874C58.2038 34.3868 58.1518 33.3543 58.7342 32.6905L62.6547 28.2338L58.7446 23.7665C58.1518 23.0922 58.2142 22.0597 58.8798 21.4697C59.5453 20.8691 60.5645 20.9323 61.1468 21.6066L65.6601 26.7377C66.3984 27.57 66.3984 28.887 65.6601 29.7194L61.1468 34.8504C60.8244 35.2086 60.3877 35.3983 59.9405 35.3983Z" fill="#36D6D9"/>
<path d="M42.0649 35.3982C41.6177 35.3982 41.1809 35.2191 40.8585 34.8504L36.3453 29.7193C35.6069 28.887 35.6069 27.57 36.3453 26.7271L40.8585 21.5961C41.4513 20.9217 42.4704 20.8691 43.1256 21.4591C43.7911 22.0596 43.8431 23.0922 43.2608 23.7559L39.3403 28.2127L43.2608 32.6694C43.8535 33.3437 43.7911 34.3762 43.1256 34.9663C42.824 35.2613 42.4392 35.3982 42.0649 35.3982ZM38.7579 28.8975C38.7475 28.8975 38.7475 28.8975 38.7579 28.8975V28.8975ZM38.7371 27.5384C38.7475 27.5489 38.7475 27.5489 38.7371 27.5384V27.5384Z" fill="#36D6D9"/>
</g>
<defs>
<clipPath id="clip0_28195_7267">
<rect width="78.972" height="80" fill="white" transform="translate(0.289612)"/>
</clipPath>
</defs>
</svg>
