<?xml version="1.0" encoding="UTF-8"?>
<svg xmlns="http://www.w3.org/2000/svg" xmlns:xlink="http://www.w3.org/1999/xlink" width="40px" height="39px" viewBox="0 0 40 39" version="1.1">
<defs>
<linearGradient id="linear0" gradientUnits="userSpaceOnUse" x1="12.9585" y1="36.7995" x2="27.4956" y2="11.6205" >
<stop offset="0.0209334" style="stop-color:rgb(0%,0%,19.607843%);stop-opacity:1;"/>
<stop offset="0.1553" style="stop-color:rgb(5.098039%,21.568627%,36.078431%);stop-opacity:1;"/>
<stop offset="0.3905" style="stop-color:rgb(0%,0%,19.607843%);stop-opacity:1;"/>
<stop offset="0.5247" style="stop-color:rgb(21.176471%,83.921569%,85.098039%);stop-opacity:1;"/>
<stop offset="0.6297" style="stop-color:rgb(0%,0%,19.607843%);stop-opacity:1;"/>
<stop offset="0.727" style="stop-color:rgb(0%,0%,19.607843%);stop-opacity:1;"/>
<stop offset="0.7951" style="stop-color:rgb(14.117647%,57.254902%,63.921569%);stop-opacity:1;"/>
<stop offset="0.8437" style="stop-color:rgb(5.098039%,21.568627%,36.078431%);stop-opacity:1;"/>
</linearGradient>
</defs>
<g id="surface1">
<path style=" stroke:none;fill-rule:nonzero;fill:url(#linear0);" d="M 38.199219 20.5 C 37 19 35.398438 18.101562 33.5 17.800781 C 32.300781 13.699219 28.300781 11.101562 24.101562 11.800781 C 22.199219 9.300781 19.300781 7.898438 16.101562 8 C 11.398438 8.101562 7.398438 11.300781 6.5 15.800781 C 5 16.199219 3.601562 17 2.5 18.101562 C 0.898438 19.800781 0 22.101562 0 24.398438 C 0.101562 26.699219 1 28.898438 2.699219 30.398438 C 4.300781 32 5.898438 32.699219 8.199219 32.699219 L 19.300781 32.699219 L 19.300781 30.300781 L 9 30.300781 C 7.199219 30.398438 5.601562 29.800781 4.398438 28.601562 C 3.5 27.699219 2.898438 26.5 2.601562 25.199219 C 2.300781 23.601562 2.699219 21.898438 3.699219 20.5 C 4.699219 19.101562 6.199219 18.199219 7.800781 17.898438 C 8.300781 17.800781 8.699219 17.300781 8.699219 16.898438 C 9 14.699219 10.199219 12.800781 12.101562 11.601562 C 13.898438 10.398438 15.898438 10.101562 17.898438 10.5 C 19.898438 10.898438 21.5 12 22.699219 13.800781 C 23 14.199219 23.5 14.398438 24 14.300781 C 24.398438 14.101562 25 14.101562 25.5 14.101562 L 25.601562 14.101562 C 28.5 14.101562 30.898438 16.199219 31.398438 19.101562 C 31.5 19.398438 31.699219 19.699219 31.898438 19.898438 C 32.199219 20.101562 32.5 20.101562 32.601562 20.101562 C 34 20.101562 35.300781 20.601562 36.199219 21.5 C 37.101562 22.5 37.699219 23.800781 37.699219 25.101562 C 37.699219 27.898438 35.398438 30.199219 32.699219 30.300781 L 26.101562 30.398438 L 26.101562 32.800781 L 32.800781 32.699219 C 36.5 32.5 39.5 29.601562 39.898438 25.898438 C 40.101562 24 39.398438 22.101562 38.199219 20.5 Z M 38.199219 20.5 "/>
<path style=" stroke:none;fill-rule:nonzero;fill:rgb(21.176471%,83.921569%,85.098039%);fill-opacity:1;" d="M 25.398438 30.601562 L 23.601562 30.601562 L 23.601562 28.800781 L 21.800781 28.800781 L 21.800781 30.601562 L 20 30.601562 L 20 32.398438 L 21.800781 32.398438 L 21.800781 34.199219 L 23.601562 34.199219 L 23.601562 32.398438 L 25.398438 32.398438 Z M 25.398438 30.601562 "/>
</g>
</svg>
