<svg width="80" height="76" viewBox="0 0 80 76" fill="none" xmlns="http://www.w3.org/2000/svg">
<path d="M48.8061 64.425V55.6091C48.8061 54.7441 48.117 54.046 47.2633 54.046C46.4096 54.046 45.7205 54.7441 45.7205 55.6091V64.425C43.3754 65.1024 41.6371 67.3011 41.6371 69.9063C41.6371 73.0534 44.1571 75.6065 47.2633 75.6065C50.3695 75.6065 52.8895 73.0534 52.8895 69.9063C52.8997 67.3011 51.1615 65.1024 48.8061 64.425ZM47.2633 72.4907C45.8542 72.4907 44.7125 71.334 44.7125 69.9063C44.7125 68.4787 45.8542 67.322 47.2633 67.322C48.6724 67.322 49.8141 68.4787 49.8141 69.9063C49.8141 71.334 48.6724 72.4907 47.2633 72.4907Z" fill="#36D6D9"/>
<path d="M73.625 49.2733C71.0537 49.2733 68.8834 51.024 68.2149 53.4207H64.1213V39.6862H65.7258C66.5795 39.6862 67.2686 38.988 67.2686 38.1231V37.9564C67.2686 34.6321 69.9428 31.9227 73.2239 31.9227H73.553C74.0159 31.9227 74.4582 31.7143 74.7461 31.3496C75.0341 30.9849 75.1576 30.5055 75.065 30.0574C73.5325 22.492 69.768 15.6872 64.1624 10.3935C63.823 10.0705 63.3601 9.92458 62.8973 9.9871C62.4344 10.0496 62.0333 10.3206 61.7865 10.727C61.3339 11.4877 60.7476 12.1129 60.0276 12.6027C60.0071 12.6131 59.9968 12.6235 59.9762 12.634C59.8425 12.7382 56.5923 15.0516 53.0849 12.4256C53.0129 12.3734 52.9718 12.3422 52.8895 12.3005C52.6941 12.1859 50.5341 10.8312 50.637 6.96509C50.6576 6.20437 50.9147 5.37072 51.4187 4.49537C51.645 4.08896 51.6861 3.59919 51.5215 3.16152C51.357 2.72385 51.0073 2.37996 50.565 2.23407C46.8828 1.01485 43.0566 0.400024 39.1687 0.400024C35.5894 0.400024 32.0409 0.931482 28.6261 1.96313C28.1941 2.0986 27.8341 2.41123 27.6593 2.83848C27.4741 3.25531 27.4947 3.74508 27.6901 4.15149C29.0786 6.99635 28.0501 10.456 25.3347 12.0504L25.1907 12.1338C22.4034 13.7698 18.8755 12.8736 17.1681 10.1121C16.9315 9.72658 16.5304 9.45564 16.0778 9.39312C15.6253 9.3306 15.1727 9.46606 14.8333 9.76827C9.24826 14.8015 5.36035 21.3249 3.59125 28.6298C3.48839 29.0779 3.57068 29.5468 3.8381 29.9115C4.10552 30.2867 4.51694 30.5159 4.9695 30.5472C8.06543 30.7973 10.4722 33.4338 10.4722 36.5704V38.1231C10.4722 38.988 11.1614 39.6862 12.015 39.6862H14.8641V53.4207H11.3259C10.6574 51.0344 8.48713 49.2837 5.91577 49.2837C2.80955 49.2733 0.289612 51.8368 0.289612 54.9734C0.289612 58.1205 2.80955 60.6736 5.91577 60.6736C8.48713 60.6736 10.6574 58.9229 11.3259 56.5261H16.4069C17.2606 56.5261 17.9498 55.8279 17.9498 54.963V39.6862H22.4857V59.7149L18.2686 64.7585C17.5383 64.4042 16.7155 64.2062 15.8618 64.2062C12.7556 64.2062 10.2357 66.7593 10.2357 69.9063C10.2357 73.0534 12.7556 75.6065 15.8618 75.6065C18.968 75.6065 21.488 73.0534 21.488 69.9063C21.488 68.7705 21.1588 67.7076 20.5828 66.8114L25.201 61.2884C25.201 61.2884 25.201 61.278 25.2113 61.278C25.2319 61.2467 25.2525 61.2259 25.273 61.1946C25.2833 61.1842 25.2936 61.1633 25.3039 61.1529C25.3245 61.1216 25.3347 61.1008 25.3553 61.0695C25.3656 61.0591 25.3759 61.0383 25.3862 61.0279C25.3965 61.007 25.4067 60.9758 25.4273 60.9445C25.4376 60.9237 25.4479 60.9028 25.4582 60.882C25.4684 60.8716 25.4684 60.8507 25.4684 60.8403C25.4787 60.809 25.4993 60.7778 25.5096 60.7361C25.5096 60.7257 25.5199 60.7152 25.5199 60.6944C25.5302 60.6527 25.5404 60.6215 25.5507 60.5798C25.5507 60.5694 25.5507 60.5485 25.561 60.5381C25.5713 60.4964 25.5713 60.4651 25.5816 60.4235C25.5816 60.4026 25.5816 60.3922 25.5816 60.3714C25.5816 60.3401 25.5816 60.2984 25.5919 60.2671V60.2567V39.6862H30.21V64.425C27.8547 65.1024 26.1267 67.3011 26.1267 69.9063C26.1267 73.0534 28.6467 75.6065 31.7529 75.6065C34.8591 75.6065 37.379 73.0534 37.379 69.9063C37.379 67.3011 35.6511 65.1024 33.2854 64.425V39.6862H45.7617V43.4377C45.7617 44.3026 46.4508 45.0008 47.3045 45.0008C48.1582 45.0008 48.8473 44.3026 48.8473 43.4377V39.6862H53.4655V60.288V60.2984C53.4655 60.3297 53.4655 60.3714 53.4758 60.4026C53.4758 60.413 53.4758 60.4339 53.4758 60.4547C53.4758 60.4964 53.4861 60.5277 53.4964 60.5589C53.4964 60.5693 53.4964 60.5902 53.5066 60.6006C53.5169 60.6423 53.5272 60.6736 53.5375 60.7152C53.5375 60.7257 53.5478 60.7361 53.5478 60.7569C53.5581 60.7882 53.5684 60.8194 53.5889 60.8611C53.5992 60.8716 53.5992 60.8924 53.6095 60.9028C53.6198 60.9237 53.6301 60.9445 53.6404 60.9653C53.6506 60.9966 53.6609 61.0174 53.6815 61.0487C53.6918 61.0591 53.7021 61.08 53.7124 61.0904C53.7329 61.1217 53.7432 61.1529 53.7638 61.1738C53.7741 61.1842 53.7844 61.205 53.7946 61.2154C53.8152 61.2467 53.8358 61.2675 53.8563 61.2988C53.8563 61.2988 53.8564 61.3092 53.8666 61.3092L58.4848 66.8322C57.9191 67.7284 57.5797 68.7809 57.5797 69.9272C57.5797 73.0742 60.0996 75.6273 63.2058 75.6273C66.3121 75.6273 68.832 73.0742 68.832 69.9272C68.832 66.7801 66.3121 64.227 63.2058 64.227C62.3419 64.227 61.5293 64.425 60.799 64.7793L56.582 59.7357V39.6862H61.1179V54.9838C61.1179 55.8488 61.807 56.5469 62.6607 56.5469C62.7533 56.5469 62.8459 56.5365 62.9384 56.5157C63.031 56.5365 63.1236 56.5469 63.2161 56.5469H68.2972C68.9657 58.9333 71.1359 60.6944 73.7073 60.6944C76.8135 60.6944 79.3335 58.1413 79.3335 54.9943C79.2512 51.8368 76.7312 49.2733 73.625 49.2733ZM5.91577 57.5578C4.50666 57.5578 3.36497 56.4011 3.36497 54.9734C3.36497 53.5458 4.50666 52.3891 5.91577 52.3891C7.32487 52.3891 8.46656 53.5458 8.46656 54.9734C8.46656 56.4011 7.32487 57.5578 5.91577 57.5578ZM15.8515 72.4907C14.4424 72.4907 13.3007 71.334 13.3007 69.9063C13.3007 68.4787 14.4424 67.322 15.8515 67.322C17.2606 67.322 18.4023 68.4787 18.4023 69.9063C18.4023 71.334 17.2606 72.4907 15.8515 72.4907ZM34.2625 69.9063C34.2625 71.334 33.1208 72.4907 31.7117 72.4907C30.3026 72.4907 29.1609 71.334 29.1609 69.9063C29.1609 68.4787 30.3026 67.322 31.7117 67.322C33.1208 67.322 34.2625 68.4891 34.2625 69.9063ZM65.6846 69.9063C65.6846 71.334 64.543 72.4907 63.1338 72.4907C61.7247 72.4907 60.583 71.334 60.583 69.9063C60.583 68.4787 61.7247 67.322 63.1338 67.322C64.543 67.322 65.6846 68.4891 65.6846 69.9063ZM7.0266 27.7857C8.6517 22.2627 11.6139 17.292 15.6972 13.2384C18.5155 16.25 23.0514 16.9898 26.7438 14.8327L26.8878 14.7494C30.4672 12.6548 32.1129 8.41357 31.1049 4.51621C33.738 3.85971 36.443 3.52624 39.179 3.52624C42.1618 3.52624 45.1034 3.92223 47.9628 4.70379C47.7159 5.44366 47.5822 6.17311 47.5616 6.88172C47.4176 12.3213 50.6164 14.5618 51.3467 14.9995C55.6049 18.1257 60.0173 16.5001 61.7967 15.1766C62.3419 14.8015 62.8459 14.3638 63.2881 13.8845C67.3406 18.1257 70.2 23.2735 71.6502 28.9528C67.8652 29.6302 64.8824 32.7043 64.2961 36.5704H56.51C56.438 33.0065 55.2963 29.6093 53.1981 26.7228C52.6941 26.035 51.7273 25.8787 51.0484 26.3893C50.3593 26.9 50.2153 27.8795 50.7193 28.5673C52.4267 30.9119 53.3626 33.6734 53.4346 36.56H25.561C25.6536 32.8606 27.1347 29.4114 29.7678 26.8166C30.3232 26.2747 30.9197 25.7641 31.5574 25.3264C33.8923 23.6799 36.6385 22.815 39.4978 22.815C40.1561 22.815 40.8247 22.8671 41.4829 22.9609C42.3263 23.086 43.108 22.492 43.2212 21.6375C43.3446 20.783 42.7583 19.991 41.9149 19.8764C41.1127 19.7617 40.3001 19.6992 39.4875 19.6992C36.0008 19.6992 32.6477 20.7621 29.7986 22.7629C29.0272 23.3048 28.2867 23.9196 27.6181 24.5866C24.3885 27.7753 22.5782 32.0165 22.4857 36.5704H13.5579C13.5476 32.4438 10.8014 28.8903 7.0266 27.7857ZM73.625 57.5578C72.2159 57.5578 71.0742 56.4011 71.0742 54.9734C71.0742 53.5458 72.2159 52.3891 73.625 52.3891C75.0341 52.3891 76.1758 53.5458 76.1758 54.9734C76.1758 56.4011 75.0341 57.5578 73.625 57.5578Z" fill="#14142C"/>
<path d="M46.2965 50.7322L46.3376 50.7634C46.6153 50.9823 46.9444 51.0865 47.2736 51.0865C47.7364 51.0865 48.1993 50.8781 48.4976 50.4716C49.0118 49.7839 48.8781 48.8043 48.2096 48.2833L48.1684 48.252C47.4896 47.731 46.5227 47.8665 46.0085 48.5438C45.4942 49.2316 45.6279 50.2111 46.2965 50.7322Z" fill="#36D6D9"/>
<path d="M46.2553 24.6074L46.2965 24.6387C46.5742 24.8575 46.9033 24.9617 47.2324 24.9617C47.6953 24.9617 48.1581 24.7533 48.4564 24.3469C48.9707 23.6591 48.837 22.6796 48.1684 22.1585L48.1273 22.1273C47.4484 21.6062 46.4816 21.7417 45.9673 22.4191C45.4531 23.1068 45.5868 24.0864 46.2553 24.6074Z" fill="#36D6D9"/>
</svg>
