<svg width="40" height="39" viewBox="0 0 40 39" fill="none" xmlns="http://www.w3.org/2000/svg">
<g clip-path="url(#clip0_503_13648)">
<g clip-path="url(#clip1_503_13648)">
<path d="M21.8217 19.931H19.5543V17.6624H17.2868V19.931H15.0193V22.1997H17.2868V24.4684H19.5543V22.1997H21.8217V19.931Z" fill="#36D6D9"/>
<path d="M15.6301 3.38718C16.5529 3.47187 17.1773 4.56084 17.2823 5.47284C17.2952 5.58325 17.3005 5.69139 17.2974 5.795V16.5281H19.5649L19.5445 6.33872C19.5445 4.54042 17.8643 3.38945 15.779 3.38037H15.5137C15.5469 3.38113 15.5794 3.38264 15.6112 3.38566C15.6172 3.38566 15.6233 3.38718 15.6286 3.38718H15.6301Z" fill="#000032"/>
<path d="M36.1079 23.8544C36.1117 23.8953 36.1147 23.9361 36.1147 23.9777L36.1154 23.7122C36.1071 21.6258 34.956 19.9447 33.1586 19.9447L22.9746 19.9243V22.193H33.7021C33.7973 22.19 33.8971 22.1945 33.9991 22.2051C34.9129 22.3011 36.0164 22.9258 36.1071 23.8529L36.1079 23.8544Z" fill="#000032"/>
<path d="M39.4914 14.7438C39.4914 15.7397 38.329 16.4158 37.3744 16.5156C37.2731 16.5262 37.1741 16.5308 37.0788 16.5277H22.9577V2.41507C22.9554 2.34549 22.9577 2.27365 22.963 2.2003C23.0318 1.23536 23.712 0.0102716 24.7301 0.00195312C24.7339 0.00195312 24.7369 0.00195312 24.7407 0.00195312H24.4754C22.3901 0.00951537 20.7099 1.16124 20.7099 2.95879L20.6895 18.7972H22.9569V18.7956L36.5346 18.7767C38.332 18.7767 39.4824 17.0956 39.4914 15.0092V14.7438Z" fill="#000032"/>
<path d="M22.9648 2.19956C23.088 2.20864 23.2112 2.21923 23.3337 2.23057C24.3586 2.33039 25.3691 2.53003 26.3517 2.82874C29.4892 3.78234 32.1542 5.77726 34.1383 8.41346C35.9326 10.7978 37.1374 13.5649 37.3762 16.5149C38.3308 16.4151 39.4933 15.739 39.4933 14.7431C39.4873 14.5268 39.4638 14.4171 39.4419 14.3264C38.7874 11.5836 37.7685 9.17271 36.0414 6.87832C33.7656 3.85418 31.1278 1.87363 27.5626 0.662917C26.7893 0.400507 25.8959 0.0904552 24.7569 0.0012207H24.732C23.7139 0.0102954 23.0336 1.23462 22.9648 2.19956Z" fill="url(#paint0_linear_503_13648)"/>
<path d="M36.1163 23.9779L36.1095 23.8546C36.0181 22.9267 34.9153 22.3028 34.0015 22.2068C33.4014 30.281 26.6458 36.6908 18.4247 36.6908C10.2035 36.6908 2.8032 29.6783 2.8032 21.0596C2.8032 12.4409 9.16047 6.08787 17.2834 5.47231C17.1783 4.5603 16.554 3.47134 15.6311 3.38664L15.6137 3.38513C15.5812 3.38286 15.5487 3.38135 15.5162 3.38135H15.5087C14.0779 3.44411 12.6176 3.86306 11.2851 4.39998C4.95051 6.95451 0.494141 13.7212 0.494141 21.0596C0.494141 30.9518 8.53767 38.9995 18.4247 38.9995C24.5922 38.9995 30.0289 35.9497 33.248 31.2437C34.7022 29.1172 35.9478 26.4878 36.1163 23.9779Z" fill="url(#paint1_linear_503_13648)"/>
</g>
</g>
<defs>
<linearGradient id="paint0_linear_503_13648" x1="23.7698" y1="-1.34335" x2="41.0979" y2="15.975" gradientUnits="userSpaceOnUse">
<stop stop-color="#36D6D9"/>
<stop offset="0.06" stop-color="#29A5B2"/>
<stop offset="0.12" stop-color="#1A6A85"/>
<stop offset="0.19" stop-color="#0F3C61"/>
<stop offset="0.24" stop-color="#061B47"/>
<stop offset="0.29" stop-color="#010737"/>
<stop offset="0.32" stop-color="#000032"/>
<stop offset="0.5" stop-color="#000032"/>
<stop offset="0.68" stop-color="#000032"/>
<stop offset="0.71" stop-color="#020939"/>
<stop offset="0.76" stop-color="#08224C"/>
<stop offset="0.83" stop-color="#134B6C"/>
<stop offset="0.9" stop-color="#218499"/>
<stop offset="0.99" stop-color="#33CCD1"/>
<stop offset="1" stop-color="#36D6D9"/>
</linearGradient>
<linearGradient id="paint1_linear_503_13648" x1="9.15745" y1="30.2538" x2="34.373" y2="5.05143" gradientUnits="userSpaceOnUse">
<stop offset="0.46" stop-color="#000032"/>
<stop offset="0.56" stop-color="#0D375C"/>
<stop offset="0.78" stop-color="#30C0C7"/>
<stop offset="0.82" stop-color="#36D6D9"/>
</linearGradient>
<clipPath id="clip0_503_13648">
<rect width="39" height="39" fill="white" transform="translate(0.494141)"/>
</clipPath>
<clipPath id="clip1_503_13648">
<rect width="39" height="39" fill="white" transform="translate(0.494141)"/>
</clipPath>
</defs>
</svg>
