<svg xmlns="http://www.w3.org/2000/svg" xml:space="preserve" id="Layer_1" x="0" y="0" style="enable-background:new 0 0 189 224" version="1.1" viewBox="0 0 189 224"><style>.st5{fill:#b0b2b4;fill-opacity:.2}</style><path d="M94 0v224s-70.5-21.9-85.1-61.2c-13.6-36.7-7.6-129-7.6-129z" style="fill:#e6e8ea"/><path d="M94 0v224s71.2-21.9 86-61.2c13.8-36.7 7.6-129 7.6-129z" style="fill:#b0b2b4"/><path d="M94 0v224s71.2-21.9 86-61.2c13.8-36.7 7.6-129 7.6-129z" style="opacity:.2;fill:#fff;enable-background:new"/><defs><filter id="Adobe_OpacityMaskFilter" width="497.7" height="497.7" x="-206.5" y="-176" filterUnits="userSpaceOnUse"><feColorMatrix values="1 0 0 0 0 0 1 0 0 0 0 0 1 0 0 0 0 0 1 0"/></filter></defs><mask id="mask0_1_" width="497.7" height="497.7" x="-206.5" y="-176" maskUnits="userSpaceOnUse"><path d="M94 0v224s-70.5-21.9-85.1-61.2c-13.6-36.7-7.6-129-7.6-129z" style="fill:#e6e8ea;filter:url(#Adobe_OpacityMaskFilter)"/></mask><g style="mask:url(#mask0_1_)"><path d="m-96.407-170.387 5.657-5.656L291.155 205.86l-5.657 5.657zM-114.76-151.968l5.657-5.657L272.802 224.28l-5.657 5.656zM-133.114-133.69l5.657-5.657 381.905 381.905-5.657 5.656zM-151.467-115.272l5.657-5.657 381.904 381.904-5.656 5.657zM-169.82-96.994l5.656-5.657L217.74 279.254l-5.657 5.656zM-188.175-78.576l5.657-5.656 381.905 381.904-5.657 5.657zM-206.458-60.227l5.657-5.657 381.905 381.905-5.657 5.657z" class="st5"/></g></svg>