<svg width="40" height="39" viewBox="0 0 40 39" fill="none" xmlns="http://www.w3.org/2000/svg">
<g clip-path="url(#clip0_362_8212)">
<path d="M31.7462 14.9113H29.5164V12.6172H27.2865V14.9113H25.0566V17.2054H27.2865V19.4995H29.5164V17.2054H31.7462V14.9113Z" fill="#36D6D9"/>
<path d="M29.5158 9.75C29.5158 4.36494 25.2731 0 20.0389 0C14.8047 0 10.562 4.36494 10.562 9.75V13.7647H12.7919V9.75C12.8186 5.61676 16.0363 2.29412 20.0389 2.29412C24.0415 2.29412 27.2109 5.60453 27.286 9.75V11.4706H29.5158V9.75Z" fill="#000032"/>
<path d="M22.9457 32.12L21.1678 27.3C22.1475 26.8535 22.832 25.844 22.832 24.6702C22.832 23.0819 21.5803 21.7949 20.0373 21.7949C18.4942 21.7949 17.2425 23.0827 17.2425 24.6702C17.2425 25.844 17.9263 26.8527 18.9067 27.3L17.1288 32.12H22.9472H22.9457Z" fill="#000032"/>
<path d="M7.56972 14.9151C6.14409 14.9151 4.98828 16.1042 4.98828 17.5709V19.5002C4.98828 18.2354 5.98503 17.2092 7.21442 17.2084C7.21442 17.2084 7.21517 17.2084 7.21591 17.2084H23.9421V14.9143H7.56972V14.9151Z" fill="#000032"/>
<path d="M7.21814 36.7097C7.21814 36.7097 7.21814 36.709 7.21814 36.7082V17.2128L7.21442 17.209C5.98503 17.2097 4.98828 18.2352 4.98828 19.5008V36.3442C4.98828 37.8109 6.14409 39 7.56972 39H9.44503C8.21563 39 7.21814 37.9746 7.2174 36.7097H7.21814Z" fill="url(#paint0_linear_362_8212)"/>
<path d="M32.8655 36.7059C32.8655 36.7059 32.8647 36.7059 32.864 36.7059H7.2221L7.21838 36.7097C7.21913 37.9745 8.21587 39 9.44601 39H32.5102C33.9358 39 35.0916 37.8109 35.0916 36.3441V34.4148C35.0916 35.6796 34.0949 36.7059 32.8655 36.7066V36.7059Z" fill="url(#paint1_linear_362_8212)"/>
<path d="M32.8607 14.9338V36.702L32.8644 36.7058C34.0938 36.705 35.0906 35.6795 35.0906 34.414V17.5644C35.0906 16.2201 34.1198 15.1105 32.8607 14.9338Z" fill="url(#paint2_linear_362_8212)"/>
</g>
<defs>
<linearGradient id="paint0_linear_362_8212" x1="7.21665" y1="15.2773" x2="7.21665" y2="28.0892" gradientUnits="userSpaceOnUse">
<stop stop-color="#36D6D9"/>
<stop offset="0.04" stop-color="#2EB9C3"/>
<stop offset="0.12" stop-color="#238EA1"/>
<stop offset="0.21" stop-color="#1A6883"/>
<stop offset="0.3" stop-color="#12476A"/>
<stop offset="0.39" stop-color="#0B2D55"/>
<stop offset="0.5" stop-color="#061945"/>
<stop offset="0.62" stop-color="#020A3A"/>
<stop offset="0.76" stop-color="#000233"/>
<stop offset="1" stop-color="#000032"/>
</linearGradient>
<linearGradient id="paint1_linear_362_8212" x1="5.18549" y1="36.7074" x2="19.1244" y2="36.7074" gradientUnits="userSpaceOnUse">
<stop stop-color="#36D6D9"/>
<stop offset="0.05" stop-color="#2EB9C3"/>
<stop offset="0.13" stop-color="#238EA1"/>
<stop offset="0.21" stop-color="#1A6883"/>
<stop offset="0.3" stop-color="#12476A"/>
<stop offset="0.39" stop-color="#0B2D55"/>
<stop offset="0.5" stop-color="#061945"/>
<stop offset="0.62" stop-color="#020A3A"/>
<stop offset="0.76" stop-color="#000233"/>
<stop offset="1" stop-color="#000032"/>
</linearGradient>
<linearGradient id="paint2_linear_362_8212" x1="33.9756" y1="38.3331" x2="33.9756" y2="24.9117" gradientUnits="userSpaceOnUse">
<stop stop-color="#36D6D9"/>
<stop offset="0.06" stop-color="#2AA9B5"/>
<stop offset="0.12" stop-color="#208197"/>
<stop offset="0.19" stop-color="#175E7B"/>
<stop offset="0.27" stop-color="#104064"/>
<stop offset="0.35" stop-color="#0A2952"/>
<stop offset="0.44" stop-color="#051643"/>
<stop offset="0.55" stop-color="#020939"/>
<stop offset="0.7" stop-color="#000233"/>
<stop offset="1" stop-color="#000032"/>
</linearGradient>
<clipPath id="clip0_362_8212">
<rect width="30" height="39" fill="white" transform="translate(4.98828)"/>
</clipPath>
</defs>
</svg>
